<svg xmlns="http://www.w3.org/2000/svg" xmlns:xlink="http://www.w3.org/1999/xlink" >
<rect data-name="background" width="100%" height="100%" fill="#FFFFFF"/><g data-name="icon" fill="#000000" data="id:7290501" transform="translate(30.299498993761198,167.74392686154388) scale(0.6451132740849659)">
    
 <path d="m4.1797 84.152 30.207 10.34s0.007812 0 0.015625 0.003906c0.15625 0.050781 0.32031 0.082031 0.49219 0.082031 0.019531 0 0.042969-0.007813 0.0625-0.011719 0.14453-0.007812 0.28906-0.023437 0.42578-0.070312 0.007813 0 0.011719 0 0.015626-0.003906l29.703-10.164 29.703 10.164c0.16406 0.054687 0.33594 0.085937 0.50781 0.085937 0.32031 0 0.64062-0.097656 0.91016-0.29297 0.41016-0.29297 0.65234-0.76562 0.65234-1.2695v-75.691c0-0.66797-0.42578-1.2617-1.0547-1.4766l-30.207-10.34c-0.019531-0.007812-0.039062 0-0.058593-0.007812-0.16797-0.050781-0.33984-0.074219-0.51563-0.066406-0.019531 0-0.035156-0.003906-0.054687 0-0.12891 0.007812-0.25781 0.035156-0.38281 0.078125l-29.703 10.164-29.703-10.168c-0.47656-0.16406-1.0039-0.085937-1.4141 0.20703-0.41016 0.29297-0.65234 0.76562-0.65234 1.2695v75.688c0 0.66797 0.42578 1.2617 1.0547 1.4766zm89.57 6.6758-27.082-9.2695v-72.387l27.082 9.2695zm-30.207-9.2695-27.082 9.2695v-72.387l27.082-9.2695zm-57.293-72.387 27.082 9.2695v72.383l-27.082-9.2695z"/>
 <path d="m29.926 25.262-19.258-6.582c-0.47656-0.16406-1.0039-0.085938-1.4141 0.20703s-0.65234 0.76562-0.65234 1.2695v19.367c0 0.66797 0.42188 1.2617 1.0547 1.4766l19.254 6.5938c0.16406 0.058594 0.33594 0.085938 0.50781 0.085938 0.32031 0 0.64062-0.097657 0.91016-0.29297 0.41016-0.29297 0.65234-0.76562 0.65234-1.2695v-19.379c0-0.66797-0.42578-1.2617-1.0547-1.4766zm-2.0664 18.672-16.129-5.5234v-16.062l16.129 5.5156v16.074z"/>
 <path d="m39.461 64.879c0.26953 0.19141 0.58594 0.29297 0.91016 0.29297 0.17188 0 0.33984-0.027344 0.50781-0.085937l19.254-6.5977c0.63281-0.21484 1.0547-0.8125 1.0547-1.4766v-36.855c0-0.50391-0.24219-0.97656-0.65234-1.2695s-0.9375-0.37109-1.4141-0.20703l-19.254 6.582c-0.63281 0.21484-1.0547 0.8125-1.0547 1.4766v36.867c0 0.50391 0.24219 0.97656 0.65234 1.2695zm2.4688-37.02 16.129-5.5156v33.551l-16.129 5.5273z"/>
 <path d="m39.461 81.383c0.26953 0.19141 0.58594 0.29297 0.91016 0.29297 0.17188 0 0.33984-0.027343 0.50781-0.085937l19.254-6.582c0.63281-0.21484 1.0547-0.8125 1.0547-1.4766v-8.6211c0-0.50391-0.24219-0.97656-0.65234-1.2695s-0.9375-0.37109-1.4141-0.20703l-19.254 6.582c-0.63281 0.21484-1.0547 0.8125-1.0547 1.4766v8.6211c0 0.50391 0.24219 0.97656 0.65234 1.2695zm2.4688-8.7734 16.129-5.5156v5.3203l-16.129 5.5156z"/>
 <path d="m70.074 74.738 19.258 6.582c0.16406 0.054688 0.33594 0.085938 0.50391 0.085938 0.32031 0 0.64062-0.097656 0.91016-0.29297 0.41016-0.29297 0.65234-0.76562 0.65234-1.2695v-19.367c0-0.66797-0.42188-1.2617-1.0547-1.4766l-19.254-6.5938c-0.47656-0.16406-1.0039-0.085938-1.4141 0.20703-0.41016 0.29297-0.65234 0.76562-0.65234 1.2695v19.379c0 0.66797 0.42578 1.2617 1.0547 1.4766zm2.0664-18.672 16.129 5.5234v16.062l-16.129-5.5156v-16.074z"/>
 <path d="m29.926 51.238-19.254-6.5977c-0.82031-0.28516-1.707 0.15625-1.9844 0.97266-0.28125 0.81641 0.15625 1.7031 0.97266 1.9844l19.254 6.5977c0.16797 0.058594 0.33984 0.085938 0.50781 0.085938 0.64844 0 1.2578-0.40625 1.4766-1.0547 0.28125-0.81641-0.15625-1.7031-0.97266-1.9844z"/>
 <path d="m23.008 53.84-12.336-4.2266c-0.82031-0.28516-1.707 0.15625-1.9844 0.97266-0.28125 0.81641 0.15625 1.7031 0.97266 1.9844l12.336 4.2266c0.16797 0.058594 0.33984 0.085937 0.50781 0.085937 0.64844 0 1.2578-0.40625 1.4766-1.0547 0.28125-0.81641-0.15625-1.7031-0.97266-1.9844z"/>

    </g><g data-name="business_name" fill="#000000" data="id:14" transform="translate(113.28407632019466,160.99516357490035) scale(1.187000477803167)"><path d="M3.8,48l0.16-13l-0.16-14.92l0.92-0.08t2.42-0.2t3.26-0.2t3.36-0.08q3.92,0,6.08,2.4t2.16,7.2q0,3-0.76,4.94t-2.08,3.04t-2.92,1.56t-3.32,0.46q-1.36,0-2.7-0.1t-1.74-0.1l0,9.08l-4.68,0z M13.12,35.28q1.12,0,1.84-0.16t1.12-0.52q0.56-0.56,0.8-2t0.24-3.84q0-1.96-0.2-2.96t-0.44-1.42t-0.52-0.62q-0.32-0.24-1.12-0.42t-2-0.18q-1.24,0-2.44,0.12t-1.92,0.24l0,11.36q0.32,0.08,1.66,0.24t2.98,0.16z M27.6,48l0-23.4l2.88,0l0.64,2.44l0.24,0l0.6-0.46t1.58-1.02t2.1-1.02t2.16-0.46q0.96,0,1.52,0.16l0.56,0.16l-0.36,4.16l-0.6-0.04t-1.2-0.04q-1.08,0-2.14,0.28t-1.92,0.68t-1.42,0.8l0,17.76l-4.64,0z M52.28,48.52q-3.6,0-5.66-1.48t-2.94-4.22t-0.88-6.54q0-3.76,0.88-6.48t2.94-4.22t5.66-1.5q3.56,0,5.62,1.5t2.92,4.22t0.86,6.52q0,3.76-0.86,6.5t-2.92,4.22t-5.62,1.48z M52.28,44.8q1.36,0,2.26-0.34t1.44-1.24t0.76-2.58t0.22-4.36q0-2.64-0.22-4.32t-0.76-2.58t-1.46-1.24t-2.24-0.34q-1.36,0-2.28,0.34t-1.46,1.24t-0.8,2.58t-0.26,4.32q0,2.68,0.26,4.36t0.8,2.58t1.46,1.24t2.28,0.34z M67.72,48l0-23.4l3,0l0.56,2.32l0.16,0q0.52-0.32,1.4-0.78t1.96-0.96t2.28-0.82t2.4-0.32q1.84,0,3.1,0.82t1.86,2.22q1.64-1.04,3.66-2.04t4.38-1q2.32,0,3.58,1.1t1.76,3.02t0.5,4.48l0,15.36l-4.64,0l0-14.24q0-1.8-0.08-2.98t-0.48-1.78q-0.36-0.48-0.94-0.62t-1.06-0.14q-0.84,0-1.76,0.22t-1.74,0.56t-1.46,0.68t-0.96,0.54q0.08,0.6,0.1,1.22t0.02,1.26l0,15.28l-4.6,0l0-14.32q0-2-0.1-3.06t-0.5-1.66q-0.36-0.44-0.88-0.58t-1.04-0.14q-1.08,0-2.2,0.34t-2.1,0.78t-1.54,0.76l0,17.88l-4.64,0z M113.36,48.52q-3.6,0-5.66-1.48t-2.94-4.22t-0.88-6.54q0-3.76,0.88-6.48t2.94-4.22t5.66-1.5q3.56,0,5.62,1.5t2.92,4.22t0.86,6.52q0,3.76-0.86,6.5t-2.92,4.22t-5.62,1.48z M113.36,44.8q1.36,0,2.26-0.34t1.44-1.24t0.76-2.58t0.22-4.36q0-2.64-0.22-4.32t-0.76-2.58t-1.46-1.24t-2.24-0.34q-1.36,0-2.28,0.34t-1.46,1.24t-0.8,2.58t-0.26,4.32q0,2.68,0.26,4.36t0.8,2.58t1.46,1.24t2.28,0.34z M128.96,48l0.16-13l-0.16-14.92l0.92-0.08t2.42-0.2t3.26-0.2t3.36-0.08q3.92,0,6.08,2.4t2.16,7.2q0,3-0.76,4.94t-2.08,3.04t-2.92,1.56t-3.32,0.46q-1.36,0-2.7-0.1t-1.74-0.1l0,9.08l-4.68,0z M138.28,35.28q1.12,0,1.84-0.16t1.12-0.52q0.56-0.56,0.8-2t0.24-3.84q0-1.96-0.2-2.96t-0.44-1.42t-0.52-0.62q-0.32-0.24-1.12-0.42t-2-0.18q-1.24,0-2.44,0.12t-1.92,0.24l0,11.36q0.32,0.08,1.66,0.24t2.98,0.16z M152.84,48l0-23.4l4.64,0l0,23.4l-4.64,0z M152.6,21l0-3.84l5.16,0l0,3.84l-5.16,0z M161.64,48l7.28-12.24l-7.04-11.16l4.96,0l4.76,8.64l0.2,0l4.68-8.64l4.96,0l-7,11.2l7.28,12.2l-5.12,0l-4.84-9.44l-0.24,0l-4.76,9.44l-5.12,0z M194.96,48.56q-2.96,0-5.22-1.18t-3.52-3.9t-1.26-7.2q0-4.72,1.32-7.36t3.56-3.76t5.04-1.12q2.84,0,4.82,1.06t3.02,3.5t1.04,6.52l0,2.88l-16.12,0l2.12-0.72q-0.08,2.08,0.12,3.44t0.58,2.08t0.78,1.08q0.48,0.44,1.2,0.66t1.8,0.22q1.12,0,2.34-0.2t2.3-0.48t1.92-0.54t1.24-0.38l1.16,3.48q-0.36,0.16-1.56,0.64t-2.92,0.88t-3.76,0.4z M189.76,35.72l-2.12-1.16l13.48-0.28l-2.08,1.24q0-2.44-0.14-4.12t-0.7-2.52q-0.28-0.36-0.9-0.7t-2.3-0.34q-1.8,0-2.7,0.38t-1.38,0.98q-1.32,1.56-1.16,6.52z M209.72,48l0-30.28l4.6,0l0,30.28l-4.6,0z"/></g></svg>