<svg xmlns="http://www.w3.org/2000/svg" xmlns:xlink="http://www.w3.org/1999/xlink" width="400" height="400" viewBox="0 0 400 400"><g data-name="icon" fill="#3FB2BE" data="id:7290501" transform="translate(7.98459911317703, 7.989093635152194) scale(3.8401693824711343)">
    
 <path d="m4.1797 84.152 30.207 10.34s0.007812 0 0.015625 0.003906c0.15625 0.050781 0.32031 0.082031 0.49219 0.082031 0.019531 0 0.042969-0.007813 0.0625-0.011719 0.14453-0.007812 0.28906-0.023437 0.42578-0.070312 0.007813 0 0.011719 0 0.015626-0.003906l29.703-10.164 29.703 10.164c0.16406 0.054687 0.33594 0.085937 0.50781 0.085937 0.32031 0 0.64062-0.097656 0.91016-0.29297 0.41016-0.29297 0.65234-0.76562 0.65234-1.2695v-75.691c0-0.66797-0.42578-1.2617-1.0547-1.4766l-30.207-10.34c-0.019531-0.007812-0.039062 0-0.058593-0.007812-0.16797-0.050781-0.33984-0.074219-0.51563-0.066406-0.019531 0-0.035156-0.003906-0.054687 0-0.12891 0.007812-0.25781 0.035156-0.38281 0.078125l-29.703 10.164-29.703-10.168c-0.47656-0.16406-1.0039-0.085937-1.4141 0.20703-0.41016 0.29297-0.65234 0.76562-0.65234 1.2695v75.688c0 0.66797 0.42578 1.2617 1.0547 1.4766zm89.57 6.6758-27.082-9.2695v-72.387l27.082 9.2695zm-30.207-9.2695-27.082 9.2695v-72.387l27.082-9.2695zm-57.293-72.387 27.082 9.2695v72.383l-27.082-9.2695z"/>
 <path d="m29.926 25.262-19.258-6.582c-0.47656-0.16406-1.0039-0.085938-1.4141 0.20703s-0.65234 0.76562-0.65234 1.2695v19.367c0 0.66797 0.42188 1.2617 1.0547 1.4766l19.254 6.5938c0.16406 0.058594 0.33594 0.085938 0.50781 0.085938 0.32031 0 0.64062-0.097657 0.91016-0.29297 0.41016-0.29297 0.65234-0.76562 0.65234-1.2695v-19.379c0-0.66797-0.42578-1.2617-1.0547-1.4766zm-2.0664 18.672-16.129-5.5234v-16.062l16.129 5.5156v16.074z"/>
 <path d="m39.461 64.879c0.26953 0.19141 0.58594 0.29297 0.91016 0.29297 0.17188 0 0.33984-0.027344 0.50781-0.085937l19.254-6.5977c0.63281-0.21484 1.0547-0.8125 1.0547-1.4766v-36.855c0-0.50391-0.24219-0.97656-0.65234-1.2695s-0.9375-0.37109-1.4141-0.20703l-19.254 6.582c-0.63281 0.21484-1.0547 0.8125-1.0547 1.4766v36.867c0 0.50391 0.24219 0.97656 0.65234 1.2695zm2.4688-37.02 16.129-5.5156v33.551l-16.129 5.5273z"/>
 <path d="m39.461 81.383c0.26953 0.19141 0.58594 0.29297 0.91016 0.29297 0.17188 0 0.33984-0.027343 0.50781-0.085937l19.254-6.582c0.63281-0.21484 1.0547-0.8125 1.0547-1.4766v-8.6211c0-0.50391-0.24219-0.97656-0.65234-1.2695s-0.9375-0.37109-1.4141-0.20703l-19.254 6.582c-0.63281 0.21484-1.0547 0.8125-1.0547 1.4766v8.6211c0 0.50391 0.24219 0.97656 0.65234 1.2695zm2.4688-8.7734 16.129-5.5156v5.3203l-16.129 5.5156z"/>
 <path d="m70.074 74.738 19.258 6.582c0.16406 0.054688 0.33594 0.085938 0.50391 0.085938 0.32031 0 0.64062-0.097656 0.91016-0.29297 0.41016-0.29297 0.65234-0.76562 0.65234-1.2695v-19.367c0-0.66797-0.42188-1.2617-1.0547-1.4766l-19.254-6.5938c-0.47656-0.16406-1.0039-0.085938-1.4141 0.20703-0.41016 0.29297-0.65234 0.76562-0.65234 1.2695v19.379c0 0.66797 0.42578 1.2617 1.0547 1.4766zm2.0664-18.672 16.129 5.5234v16.062l-16.129-5.5156v-16.074z"/>
 <path d="m29.926 51.238-19.254-6.5977c-0.82031-0.28516-1.707 0.15625-1.9844 0.97266-0.28125 0.81641 0.15625 1.7031 0.97266 1.9844l19.254 6.5977c0.16797 0.058594 0.33984 0.085938 0.50781 0.085938 0.64844 0 1.2578-0.40625 1.4766-1.0547 0.28125-0.81641-0.15625-1.7031-0.97266-1.9844z"/>
 <path d="m23.008 53.84-12.336-4.2266c-0.82031-0.28516-1.707 0.15625-1.9844 0.97266-0.28125 0.81641 0.15625 1.7031 0.97266 1.9844l12.336 4.2266c0.16797 0.058594 0.33984 0.085937 0.50781 0.085937 0.64844 0 1.2578-0.40625 1.4766-1.0547 0.28125-0.81641-0.15625-1.7031-0.97266-1.9844z"/>

    </g></svg>